<svg width="40" height="40" viewBox="0 0 40 40" fill="none" xmlns="http://www.w3.org/2000/svg">
<path fill-rule="evenodd" clip-rule="evenodd" d="M20 1.66675C9.87496 1.66675 1.66663 9.87508 1.66663 20.0001C1.66663 30.1251 9.87496 38.3334 20 38.3334C30.125 38.3334 38.3333 30.1251 38.3333 20.0001C38.3333 9.87508 30.125 1.66675 20 1.66675ZM16.3216 14.5117C16.018 14.1974 15.85 13.7764 15.8538 13.3394C15.8576 12.9024 16.0329 12.4844 16.3419 12.1754C16.6509 11.8664 17.069 11.6911 17.506 11.6873C17.943 11.6835 18.364 11.8515 18.6783 12.1551L25.345 18.8217C25.6574 19.1343 25.8329 19.5581 25.8329 20.0001C25.8329 20.442 25.6574 20.8659 25.345 21.1784L18.6783 27.8451C18.364 28.1487 17.943 28.3167 17.506 28.3129C17.069 28.3091 16.6509 28.1338 16.3419 27.8248C16.0329 27.5158 15.8576 27.0977 15.8538 26.6607C15.85 26.2238 16.018 25.8027 16.3216 25.4884L21.81 20.0001L16.3216 14.5117Z" fill="#131316"/>
</svg>
