<svg width="60" height="60" viewBox="0 0 60 60" fill="none" xmlns="http://www.w3.org/2000/svg">
<path fill-rule="evenodd" clip-rule="evenodd" d="M2 29.5C2 44.6875 14.3125 57 29.5 57C44.6875 57 57 44.6875 57 29.5C57 14.3125 44.6875 2 29.5 2C14.3125 2 2 14.3125 2 29.5ZM21.2675 35.0175C20.796 35.4729 20.1645 35.7249 19.509 35.7192C18.8535 35.7135 18.2265 35.4506 17.763 34.987C17.2994 34.5235 17.0365 33.8965 17.0308 33.241C17.0251 32.5855 17.2771 31.954 17.7325 31.4825L27.7325 21.4825C28.2013 21.0138 28.8371 20.7505 29.5 20.7505C30.1629 20.7505 30.7987 21.0138 31.2675 21.4825L41.2675 31.4825C41.7229 31.954 41.9749 32.5855 41.9692 33.241C41.9635 33.8965 41.7006 34.5235 41.237 34.987C40.7735 35.4506 40.1465 35.7135 39.491 35.7192C38.8355 35.7249 38.204 35.4729 37.7325 35.0175L29.5 26.785L21.2675 35.0175Z" fill="#25C870"/>
</svg>
